<mxfile host="app.diagrams.net" modified="2024-04-25T17:54:21.655Z" agent="Mozilla/5.0 (Windows NT 10.0; Win64; x64) AppleWebKit/537.36 (KHTML, like Gecko) Chrome/124.0.0.0 Safari/537.36" etag="O8r4njEm8cfMkxkj7WyL" version="24.3.0" type="github">
  <diagram name="Page-1" id="QnrL3zc8ECIrJKWS5WpY">
    <mxGraphModel dx="1063" dy="626" grid="1" gridSize="10" guides="1" tooltips="1" connect="1" arrows="1" fold="1" page="1" pageScale="1" pageWidth="850" pageHeight="1100" math="0" shadow="0">
      <root>
        <mxCell id="0" />
        <mxCell id="1" parent="0" />
        <mxCell id="keQh2NvHmvrn8WmfqUB1-2" style="edgeStyle=orthogonalEdgeStyle;rounded=0;orthogonalLoop=1;jettySize=auto;html=1;entryX=1;entryY=0.5;entryDx=0;entryDy=0;" parent="1" source="QVGyrubyLwDDq1W49fJA-1" target="QVGyrubyLwDDq1W49fJA-2" edge="1">
          <mxGeometry relative="1" as="geometry" />
        </mxCell>
        <mxCell id="QVGyrubyLwDDq1W49fJA-1" value="Start" style="rounded=1;whiteSpace=wrap;html=1;arcSize=50;fontStyle=1" parent="1" vertex="1">
          <mxGeometry x="354.37" y="109" width="120" height="60" as="geometry" />
        </mxCell>
        <mxCell id="QVGyrubyLwDDq1W49fJA-5" style="edgeStyle=orthogonalEdgeStyle;rounded=0;orthogonalLoop=1;jettySize=auto;html=1;entryX=0.5;entryY=0;entryDx=0;entryDy=0;fontStyle=1" parent="1" source="QVGyrubyLwDDq1W49fJA-2" target="QVGyrubyLwDDq1W49fJA-4" edge="1">
          <mxGeometry relative="1" as="geometry" />
        </mxCell>
        <mxCell id="QVGyrubyLwDDq1W49fJA-2" value="Initiate LoRa radio&lt;br&gt;with given&amp;nbsp;&lt;div&gt;parameters&lt;/div&gt;" style="rounded=0;whiteSpace=wrap;html=1;fontStyle=1" parent="1" vertex="1">
          <mxGeometry x="101.5" y="110" width="120" height="60" as="geometry" />
        </mxCell>
        <mxCell id="QVGyrubyLwDDq1W49fJA-7" style="edgeStyle=orthogonalEdgeStyle;rounded=0;orthogonalLoop=1;jettySize=auto;html=1;entryX=0.5;entryY=0;entryDx=0;entryDy=0;fontStyle=1" parent="1" source="QVGyrubyLwDDq1W49fJA-4" target="QVGyrubyLwDDq1W49fJA-6" edge="1">
          <mxGeometry relative="1" as="geometry" />
        </mxCell>
        <mxCell id="QVGyrubyLwDDq1W49fJA-4" value="Initiate Listening Mode" style="rounded=0;whiteSpace=wrap;html=1;fontStyle=1" parent="1" vertex="1">
          <mxGeometry x="101.5" y="195" width="120" height="60" as="geometry" />
        </mxCell>
        <mxCell id="QVGyrubyLwDDq1W49fJA-8" style="edgeStyle=orthogonalEdgeStyle;rounded=0;orthogonalLoop=1;jettySize=auto;html=1;entryX=0;entryY=0.5;entryDx=0;entryDy=0;fontStyle=1" parent="1" source="QVGyrubyLwDDq1W49fJA-6" target="QVGyrubyLwDDq1W49fJA-11" edge="1">
          <mxGeometry relative="1" as="geometry">
            <mxPoint x="266.5" y="340" as="targetPoint" />
          </mxGeometry>
        </mxCell>
        <mxCell id="QVGyrubyLwDDq1W49fJA-10" value="Yes" style="edgeLabel;html=1;align=center;verticalAlign=middle;resizable=0;points=[];fontStyle=1;labelBackgroundColor=none;" parent="QVGyrubyLwDDq1W49fJA-8" vertex="1" connectable="0">
          <mxGeometry x="-0.1743" y="2" relative="1" as="geometry">
            <mxPoint x="-5" y="-18" as="offset" />
          </mxGeometry>
        </mxCell>
        <mxCell id="QVGyrubyLwDDq1W49fJA-38" style="edgeStyle=orthogonalEdgeStyle;rounded=0;orthogonalLoop=1;jettySize=auto;html=1;entryX=0.499;entryY=-0.054;entryDx=0;entryDy=0;entryPerimeter=0;fontStyle=1" parent="1" source="QVGyrubyLwDDq1W49fJA-6" target="QVGyrubyLwDDq1W49fJA-110" edge="1">
          <mxGeometry relative="1" as="geometry">
            <mxPoint x="162" y="440.0000000000001" as="targetPoint" />
          </mxGeometry>
        </mxCell>
        <mxCell id="QVGyrubyLwDDq1W49fJA-40" value="No" style="edgeLabel;html=1;align=center;verticalAlign=middle;resizable=0;points=[];fontStyle=1;labelBackgroundColor=none;" parent="QVGyrubyLwDDq1W49fJA-38" vertex="1" connectable="0">
          <mxGeometry x="-0.1706" y="-1" relative="1" as="geometry">
            <mxPoint x="9" y="5" as="offset" />
          </mxGeometry>
        </mxCell>
        <mxCell id="QVGyrubyLwDDq1W49fJA-6" value="Earth-quake&lt;div&gt;Detected&lt;/div&gt;" style="rhombus;whiteSpace=wrap;html=1;fontStyle=1" parent="1" vertex="1">
          <mxGeometry x="114.5" y="290" width="95" height="100" as="geometry" />
        </mxCell>
        <mxCell id="QVGyrubyLwDDq1W49fJA-36" style="edgeStyle=orthogonalEdgeStyle;rounded=0;orthogonalLoop=1;jettySize=auto;html=1;entryX=0;entryY=0.5;entryDx=0;entryDy=0;fontStyle=1" parent="1" source="QVGyrubyLwDDq1W49fJA-11" target="QVGyrubyLwDDq1W49fJA-35" edge="1">
          <mxGeometry relative="1" as="geometry">
            <Array as="points">
              <mxPoint x="387" y="350" />
              <mxPoint x="387" y="310" />
            </Array>
          </mxGeometry>
        </mxCell>
        <mxCell id="QVGyrubyLwDDq1W49fJA-11" value="Transmit the warning&lt;br&gt;message packet&lt;div&gt;in non-blocking&lt;/div&gt;&lt;div&gt;Mode&lt;/div&gt;" style="rounded=0;whiteSpace=wrap;html=1;fontStyle=1" parent="1" vertex="1">
          <mxGeometry x="256.5" y="308" width="120" height="80" as="geometry" />
        </mxCell>
        <mxCell id="QVGyrubyLwDDq1W49fJA-33" value="" style="group;fontStyle=1" parent="1" vertex="1" connectable="0">
          <mxGeometry x="763" y="210" width="150" height="260" as="geometry" />
        </mxCell>
        <mxCell id="QVGyrubyLwDDq1W49fJA-32" value="" style="rounded=1;whiteSpace=wrap;html=1;fillColor=#dae8fc;strokeColor=#6c8ebf;fontStyle=1" parent="QVGyrubyLwDDq1W49fJA-33" vertex="1">
          <mxGeometry x="20" y="10" width="110" height="250" as="geometry" />
        </mxCell>
        <mxCell id="QVGyrubyLwDDq1W49fJA-28" style="edgeStyle=orthogonalEdgeStyle;rounded=0;orthogonalLoop=1;jettySize=auto;html=1;entryX=0.5;entryY=0;entryDx=0;entryDy=0;fontStyle=1" parent="QVGyrubyLwDDq1W49fJA-33" source="QVGyrubyLwDDq1W49fJA-26" target="QVGyrubyLwDDq1W49fJA-27" edge="1">
          <mxGeometry relative="1" as="geometry" />
        </mxCell>
        <mxCell id="QVGyrubyLwDDq1W49fJA-26" value="Dio0 Interrupt Triggerd" style="rounded=0;whiteSpace=wrap;html=1;fontStyle=1;fontSize=9;" parent="QVGyrubyLwDDq1W49fJA-33" vertex="1">
          <mxGeometry x="34.090909090909086" y="21.903361344537817" width="81.81818181818183" height="45.88235294117647" as="geometry" />
        </mxCell>
        <mxCell id="QVGyrubyLwDDq1W49fJA-30" style="edgeStyle=orthogonalEdgeStyle;rounded=0;orthogonalLoop=1;jettySize=auto;html=1;entryX=0.5;entryY=0;entryDx=0;entryDy=0;fontStyle=1" parent="QVGyrubyLwDDq1W49fJA-33" edge="1">
          <mxGeometry relative="1" as="geometry">
            <mxPoint x="74.82187499999999" y="181.60214285714267" as="sourcePoint" />
            <mxPoint x="74.82187499999999" y="200.7192436974791" as="targetPoint" />
          </mxGeometry>
        </mxCell>
        <mxCell id="QVGyrubyLwDDq1W49fJA-34" value="Yes" style="edgeLabel;html=1;align=center;verticalAlign=middle;resizable=0;points=[];labelBackgroundColor=none;fontStyle=1" parent="QVGyrubyLwDDq1W49fJA-30" vertex="1" connectable="0">
          <mxGeometry x="-0.3015" y="-3" relative="1" as="geometry">
            <mxPoint x="18" y="-1" as="offset" />
          </mxGeometry>
        </mxCell>
        <mxCell id="QVGyrubyLwDDq1W49fJA-27" value="&lt;font style=&quot;font-size: 9px;&quot;&gt;enableInterrupt&lt;/font&gt;&lt;div style=&quot;font-size: 9px;&quot;&gt;&lt;font style=&quot;font-size: 9px;&quot;&gt;flag enabled?&lt;/font&gt;&lt;/div&gt;" style="rhombus;whiteSpace=wrap;html=1;fontStyle=1;fontSize=9;" parent="QVGyrubyLwDDq1W49fJA-33" vertex="1">
          <mxGeometry x="27.571874999999995" y="90" width="94.85625000000002" height="92.49" as="geometry" />
        </mxCell>
        <mxCell id="QVGyrubyLwDDq1W49fJA-29" value="Enable Action flag" style="rounded=0;whiteSpace=wrap;html=1;fontStyle=1;fontSize=9;" parent="QVGyrubyLwDDq1W49fJA-33" vertex="1">
          <mxGeometry x="34.090909090909086" y="201.609243697479" width="81.81818181818183" height="45.88235294117647" as="geometry" />
        </mxCell>
        <mxCell id="QVGyrubyLwDDq1W49fJA-109" style="edgeStyle=orthogonalEdgeStyle;rounded=0;orthogonalLoop=1;jettySize=auto;html=1;entryX=0.5;entryY=0;entryDx=0;entryDy=0;fontStyle=1" parent="1" source="QVGyrubyLwDDq1W49fJA-35" target="QVGyrubyLwDDq1W49fJA-41" edge="1">
          <mxGeometry relative="1" as="geometry" />
        </mxCell>
        <mxCell id="QVGyrubyLwDDq1W49fJA-35" value="Enable&lt;div&gt;isTransmitting flag&lt;/div&gt;" style="rounded=0;whiteSpace=wrap;html=1;fontStyle=1" parent="1" vertex="1">
          <mxGeometry x="406.5" y="280" width="120" height="60" as="geometry" />
        </mxCell>
        <mxCell id="QVGyrubyLwDDq1W49fJA-106" style="edgeStyle=orthogonalEdgeStyle;rounded=0;orthogonalLoop=1;jettySize=auto;html=1;entryX=0.5;entryY=0;entryDx=0;entryDy=0;fontStyle=1" parent="1" source="QVGyrubyLwDDq1W49fJA-41" target="QVGyrubyLwDDq1W49fJA-44" edge="1">
          <mxGeometry relative="1" as="geometry" />
        </mxCell>
        <mxCell id="QVGyrubyLwDDq1W49fJA-114" value="Yes" style="edgeLabel;html=1;align=center;verticalAlign=middle;resizable=0;points=[];fontStyle=1" parent="QVGyrubyLwDDq1W49fJA-106" vertex="1" connectable="0">
          <mxGeometry x="0.0095" y="2" relative="1" as="geometry">
            <mxPoint y="-1" as="offset" />
          </mxGeometry>
        </mxCell>
        <mxCell id="QVGyrubyLwDDq1W49fJA-41" value="Action flag&lt;br&gt;enabled?" style="rhombus;whiteSpace=wrap;html=1;fontStyle=1" parent="1" vertex="1">
          <mxGeometry x="374" y="420" width="104" height="110" as="geometry" />
        </mxCell>
        <mxCell id="QVGyrubyLwDDq1W49fJA-107" style="edgeStyle=orthogonalEdgeStyle;rounded=0;orthogonalLoop=1;jettySize=auto;html=1;entryX=1;entryY=0.5;entryDx=0;entryDy=0;fontStyle=1" parent="1" source="QVGyrubyLwDDq1W49fJA-44" target="QVGyrubyLwDDq1W49fJA-46" edge="1">
          <mxGeometry relative="1" as="geometry" />
        </mxCell>
        <mxCell id="QVGyrubyLwDDq1W49fJA-44" value="Make enableInterrupt&lt;br&gt;and Action flags False" style="rounded=0;whiteSpace=wrap;html=1;fontStyle=1" parent="1" vertex="1">
          <mxGeometry x="366.37" y="580" width="120" height="60" as="geometry" />
        </mxCell>
        <mxCell id="QVGyrubyLwDDq1W49fJA-50" style="edgeStyle=orthogonalEdgeStyle;rounded=0;orthogonalLoop=1;jettySize=auto;html=1;entryX=0.5;entryY=0;entryDx=0;entryDy=0;fontStyle=1" parent="1" source="QVGyrubyLwDDq1W49fJA-46" target="QVGyrubyLwDDq1W49fJA-49" edge="1">
          <mxGeometry relative="1" as="geometry" />
        </mxCell>
        <mxCell id="QVGyrubyLwDDq1W49fJA-57" value="Yes" style="edgeLabel;html=1;align=center;verticalAlign=middle;resizable=0;points=[];fontStyle=1;labelBackgroundColor=none;" parent="QVGyrubyLwDDq1W49fJA-50" vertex="1" connectable="0">
          <mxGeometry x="-0.2563" y="-3" relative="1" as="geometry">
            <mxPoint x="23" y="-11" as="offset" />
          </mxGeometry>
        </mxCell>
        <mxCell id="QVGyrubyLwDDq1W49fJA-58" style="edgeStyle=orthogonalEdgeStyle;rounded=0;orthogonalLoop=1;jettySize=auto;html=1;exitX=0;exitY=0.5;exitDx=0;exitDy=0;fontStyle=1" parent="1" edge="1">
          <mxGeometry relative="1" as="geometry">
            <mxPoint x="89" y="720" as="targetPoint" />
            <Array as="points">
              <mxPoint x="89" y="610" />
            </Array>
            <mxPoint x="215" y="610" as="sourcePoint" />
          </mxGeometry>
        </mxCell>
        <mxCell id="wZ7d8AIyB8IBaUM0izVy-1" value="No" style="edgeLabel;html=1;align=center;verticalAlign=middle;resizable=0;points=[];fontStyle=1;labelBackgroundColor=none;" parent="QVGyrubyLwDDq1W49fJA-58" vertex="1" connectable="0">
          <mxGeometry x="0.0508" y="3" relative="1" as="geometry">
            <mxPoint x="76" y="10" as="offset" />
          </mxGeometry>
        </mxCell>
        <mxCell id="QVGyrubyLwDDq1W49fJA-46" value="isTransmitting&amp;nbsp;&lt;div style=&quot;font-size: 12px;&quot;&gt;flag&lt;div style=&quot;font-size: 12px;&quot;&gt;enabled?&lt;/div&gt;&lt;/div&gt;" style="rhombus;whiteSpace=wrap;html=1;fontStyle=1;fontSize=12;" parent="1" vertex="1">
          <mxGeometry x="206" y="550" width="125" height="120" as="geometry" />
        </mxCell>
        <mxCell id="QVGyrubyLwDDq1W49fJA-52" style="edgeStyle=orthogonalEdgeStyle;rounded=0;orthogonalLoop=1;jettySize=auto;html=1;entryX=0;entryY=0.5;entryDx=0;entryDy=0;fontStyle=1" parent="1" source="QVGyrubyLwDDq1W49fJA-49" target="QVGyrubyLwDDq1W49fJA-51" edge="1">
          <mxGeometry relative="1" as="geometry" />
        </mxCell>
        <mxCell id="QVGyrubyLwDDq1W49fJA-49" value="Log transmission&lt;br&gt;status" style="rounded=0;whiteSpace=wrap;html=1;fontStyle=1" parent="1" vertex="1">
          <mxGeometry x="256.5" y="723" width="120" height="60" as="geometry" />
        </mxCell>
        <mxCell id="QVGyrubyLwDDq1W49fJA-53" style="edgeStyle=orthogonalEdgeStyle;rounded=0;orthogonalLoop=1;jettySize=auto;html=1;entryX=0.5;entryY=1;entryDx=0;entryDy=0;fontStyle=1" parent="1" source="QVGyrubyLwDDq1W49fJA-51" target="QVGyrubyLwDDq1W49fJA-54" edge="1">
          <mxGeometry relative="1" as="geometry">
            <mxPoint x="596.5" y="663" as="targetPoint" />
            <Array as="points">
              <mxPoint x="586.5" y="753" />
            </Array>
          </mxGeometry>
        </mxCell>
        <mxCell id="QVGyrubyLwDDq1W49fJA-56" value="Yes" style="edgeLabel;html=1;align=center;verticalAlign=middle;resizable=0;points=[];fontStyle=1;labelBackgroundColor=none;" parent="QVGyrubyLwDDq1W49fJA-53" vertex="1" connectable="0">
          <mxGeometry x="-0.1689" y="3" relative="1" as="geometry">
            <mxPoint x="13" y="-21" as="offset" />
          </mxGeometry>
        </mxCell>
        <mxCell id="QVGyrubyLwDDq1W49fJA-85" style="edgeStyle=orthogonalEdgeStyle;rounded=0;orthogonalLoop=1;jettySize=auto;html=1;entryX=0.983;entryY=0.716;entryDx=0;entryDy=0;entryPerimeter=0;fontStyle=1" parent="1" edge="1">
          <mxGeometry relative="1" as="geometry">
            <mxPoint x="503.54" y="700" as="sourcePoint" />
            <mxPoint x="379.00000000000006" y="240.12" as="targetPoint" />
            <Array as="points">
              <mxPoint x="504" y="460" />
              <mxPoint x="569" y="460" />
              <mxPoint x="569" y="240" />
            </Array>
          </mxGeometry>
        </mxCell>
        <mxCell id="QVGyrubyLwDDq1W49fJA-87" value="No" style="edgeLabel;html=1;align=center;verticalAlign=middle;resizable=0;points=[];fontStyle=1;labelBackgroundColor=none;" parent="QVGyrubyLwDDq1W49fJA-85" vertex="1" connectable="0">
          <mxGeometry x="-0.7762" y="1" relative="1" as="geometry">
            <mxPoint x="-13" y="33" as="offset" />
          </mxGeometry>
        </mxCell>
        <mxCell id="QVGyrubyLwDDq1W49fJA-51" value="retxSch flag&amp;nbsp;&lt;div style=&quot;font-size: 12px;&quot;&gt;Enabled?&lt;/div&gt;" style="rhombus;whiteSpace=wrap;html=1;fontStyle=1;fontSize=12;" parent="1" vertex="1">
          <mxGeometry x="436.5" y="688" width="130" height="130" as="geometry" />
        </mxCell>
        <mxCell id="QVGyrubyLwDDq1W49fJA-62" style="edgeStyle=orthogonalEdgeStyle;rounded=0;orthogonalLoop=1;jettySize=auto;html=1;entryX=0.5;entryY=1;entryDx=0;entryDy=0;fontStyle=1" parent="1" source="QVGyrubyLwDDq1W49fJA-54" target="QVGyrubyLwDDq1W49fJA-61" edge="1">
          <mxGeometry relative="1" as="geometry" />
        </mxCell>
        <mxCell id="QVGyrubyLwDDq1W49fJA-54" value="retxSch flag to false&lt;br&gt;Revert LoRa parameters to selected values" style="rounded=0;whiteSpace=wrap;html=1;fontStyle=1" parent="1" vertex="1">
          <mxGeometry x="526.5" y="593" width="120" height="60" as="geometry" />
        </mxCell>
        <mxCell id="QVGyrubyLwDDq1W49fJA-66" style="edgeStyle=orthogonalEdgeStyle;rounded=0;orthogonalLoop=1;jettySize=auto;html=1;entryX=0.5;entryY=0;entryDx=0;entryDy=0;fontStyle=1" parent="1" source="QVGyrubyLwDDq1W49fJA-59" target="QVGyrubyLwDDq1W49fJA-64" edge="1">
          <mxGeometry relative="1" as="geometry" />
        </mxCell>
        <mxCell id="QVGyrubyLwDDq1W49fJA-59" value="Save the payload&lt;br&gt;&lt;div&gt;And&lt;/div&gt;&lt;div&gt;Status code&lt;/div&gt;" style="rounded=0;whiteSpace=wrap;html=1;fontStyle=1" parent="1" vertex="1">
          <mxGeometry x="50.5" y="720" width="120" height="60" as="geometry" />
        </mxCell>
        <mxCell id="QVGyrubyLwDDq1W49fJA-63" style="edgeStyle=orthogonalEdgeStyle;rounded=0;orthogonalLoop=1;jettySize=auto;html=1;entryX=1;entryY=0.5;entryDx=0;entryDy=0;fontStyle=1" parent="1" edge="1">
          <mxGeometry relative="1" as="geometry">
            <mxPoint x="587" y="470" as="sourcePoint" />
            <mxPoint x="379.5" y="230" as="targetPoint" />
            <Array as="points">
              <mxPoint x="587" y="230" />
            </Array>
          </mxGeometry>
        </mxCell>
        <mxCell id="QVGyrubyLwDDq1W49fJA-61" value="&lt;div&gt;Disable&lt;/div&gt;isTransmitting flag" style="rounded=0;whiteSpace=wrap;html=1;fontStyle=1" parent="1" vertex="1">
          <mxGeometry x="526.5" y="473" width="120" height="70" as="geometry" />
        </mxCell>
        <mxCell id="QVGyrubyLwDDq1W49fJA-67" style="edgeStyle=orthogonalEdgeStyle;rounded=0;orthogonalLoop=1;jettySize=auto;html=1;entryX=0;entryY=0.5;entryDx=0;entryDy=0;fontStyle=1;exitX=0.5;exitY=1;exitDx=0;exitDy=0;" parent="1" source="QVGyrubyLwDDq1W49fJA-64" target="QVGyrubyLwDDq1W49fJA-69" edge="1">
          <mxGeometry relative="1" as="geometry">
            <mxPoint x="256.5" y="943" as="targetPoint" />
            <Array as="points">
              <mxPoint x="111" y="944" />
            </Array>
          </mxGeometry>
        </mxCell>
        <mxCell id="QVGyrubyLwDDq1W49fJA-68" value="No" style="edgeLabel;html=1;align=center;verticalAlign=middle;resizable=0;points=[];fontStyle=1;labelBackgroundColor=none;" parent="QVGyrubyLwDDq1W49fJA-67" vertex="1" connectable="0">
          <mxGeometry x="-0.5934" y="1" relative="1" as="geometry">
            <mxPoint x="49" y="-9" as="offset" />
          </mxGeometry>
        </mxCell>
        <mxCell id="wZ7d8AIyB8IBaUM0izVy-5" value="" style="edgeStyle=orthogonalEdgeStyle;rounded=0;orthogonalLoop=1;jettySize=auto;html=1;exitX=0.004;exitY=0.492;exitDx=0;exitDy=0;entryX=-0.01;entryY=0.344;entryDx=0;entryDy=0;entryPerimeter=0;exitPerimeter=0;" parent="1" source="QVGyrubyLwDDq1W49fJA-64" edge="1">
          <mxGeometry relative="1" as="geometry">
            <Array as="points">
              <mxPoint x="48" y="863" />
              <mxPoint x="41" y="863" />
              <mxPoint x="41" y="1080" />
              <mxPoint x="147" y="1080" />
              <mxPoint x="147" y="1081" />
            </Array>
            <mxPoint x="28" y="863" as="sourcePoint" />
            <mxPoint x="165.35500000000025" y="1081.2" as="targetPoint" />
          </mxGeometry>
        </mxCell>
        <mxCell id="wZ7d8AIyB8IBaUM0izVy-7" value="Yes" style="edgeLabel;html=1;align=center;verticalAlign=middle;resizable=0;points=[];labelBackgroundColor=none;fontStyle=1" parent="wZ7d8AIyB8IBaUM0izVy-5" vertex="1" connectable="0">
          <mxGeometry x="-0.3631" y="-3" relative="1" as="geometry">
            <mxPoint x="43" y="98" as="offset" />
          </mxGeometry>
        </mxCell>
        <mxCell id="QVGyrubyLwDDq1W49fJA-64" value="Is there are no&lt;div&gt;errors in&lt;/div&gt;&lt;div&gt;reception?&lt;/div&gt;" style="rhombus;whiteSpace=wrap;html=1;fontStyle=1" parent="1" vertex="1">
          <mxGeometry x="48" y="798" width="125" height="130" as="geometry" />
        </mxCell>
        <mxCell id="QVGyrubyLwDDq1W49fJA-70" style="edgeStyle=orthogonalEdgeStyle;rounded=0;orthogonalLoop=1;jettySize=auto;html=1;entryX=0.469;entryY=0.988;entryDx=0;entryDy=0;entryPerimeter=0;fontStyle=1" parent="1" source="QVGyrubyLwDDq1W49fJA-69" target="QVGyrubyLwDDq1W49fJA-72" edge="1">
          <mxGeometry relative="1" as="geometry">
            <mxPoint x="321.5" y="873" as="targetPoint" />
          </mxGeometry>
        </mxCell>
        <mxCell id="QVGyrubyLwDDq1W49fJA-71" value="Warning Message" style="edgeLabel;html=1;align=center;verticalAlign=middle;resizable=0;points=[];fontStyle=1;labelBackgroundColor=none;" parent="QVGyrubyLwDDq1W49fJA-70" vertex="1" connectable="0">
          <mxGeometry x="-0.0441" y="1" relative="1" as="geometry">
            <mxPoint x="1" y="4" as="offset" />
          </mxGeometry>
        </mxCell>
        <mxCell id="QVGyrubyLwDDq1W49fJA-75" style="edgeStyle=orthogonalEdgeStyle;rounded=0;orthogonalLoop=1;jettySize=auto;html=1;entryX=0;entryY=0.5;entryDx=0;entryDy=0;fontStyle=1" parent="1" source="QVGyrubyLwDDq1W49fJA-69" target="QVGyrubyLwDDq1W49fJA-77" edge="1">
          <mxGeometry relative="1" as="geometry">
            <mxPoint x="466.5" y="968" as="targetPoint" />
          </mxGeometry>
        </mxCell>
        <mxCell id="QVGyrubyLwDDq1W49fJA-76" value="Reconfig&lt;br&gt;Message" style="edgeLabel;html=1;align=center;verticalAlign=middle;resizable=0;points=[];fontStyle=1;labelBackgroundColor=none;" parent="QVGyrubyLwDDq1W49fJA-75" vertex="1" connectable="0">
          <mxGeometry x="0.0292" y="2" relative="1" as="geometry">
            <mxPoint x="-1" y="1" as="offset" />
          </mxGeometry>
        </mxCell>
        <mxCell id="QVGyrubyLwDDq1W49fJA-93" value="" style="edgeStyle=orthogonalEdgeStyle;rounded=0;orthogonalLoop=1;jettySize=auto;html=1;entryX=0;entryY=0.5;entryDx=0;entryDy=0;fontStyle=1" parent="1" source="QVGyrubyLwDDq1W49fJA-69" target="QVGyrubyLwDDq1W49fJA-95" edge="1">
          <mxGeometry relative="1" as="geometry">
            <mxPoint x="321.5" y="1093" as="targetPoint" />
            <Array as="points">
              <mxPoint x="320" y="1043" />
              <mxPoint x="320" y="1056" />
            </Array>
          </mxGeometry>
        </mxCell>
        <mxCell id="QVGyrubyLwDDq1W49fJA-94" value="Health Ping" style="edgeLabel;html=1;align=center;verticalAlign=middle;resizable=0;points=[];labelBackgroundColor=none;fontStyle=1" parent="QVGyrubyLwDDq1W49fJA-93" vertex="1" connectable="0">
          <mxGeometry x="-0.3888" y="-2" relative="1" as="geometry">
            <mxPoint x="-4" y="-17" as="offset" />
          </mxGeometry>
        </mxCell>
        <mxCell id="QVGyrubyLwDDq1W49fJA-69" value="What is the&lt;br&gt;packet type" style="rhombus;whiteSpace=wrap;html=1;fontStyle=1" parent="1" vertex="1">
          <mxGeometry x="265.5" y="888" width="110" height="112" as="geometry" />
        </mxCell>
        <mxCell id="QVGyrubyLwDDq1W49fJA-74" style="edgeStyle=orthogonalEdgeStyle;rounded=0;orthogonalLoop=1;jettySize=auto;html=1;fontStyle=1" parent="1" source="QVGyrubyLwDDq1W49fJA-72" target="QVGyrubyLwDDq1W49fJA-88" edge="1">
          <mxGeometry relative="1" as="geometry">
            <Array as="points">
              <mxPoint x="666.5" y="830" />
              <mxPoint x="666.5" y="220" />
            </Array>
          </mxGeometry>
        </mxCell>
        <mxCell id="QVGyrubyLwDDq1W49fJA-72" value="Notify and trigger the&lt;br&gt;warning" style="rounded=0;whiteSpace=wrap;html=1;fontStyle=1" parent="1" vertex="1">
          <mxGeometry x="264.5" y="803" width="120" height="60" as="geometry" />
        </mxCell>
        <mxCell id="QVGyrubyLwDDq1W49fJA-79" style="edgeStyle=orthogonalEdgeStyle;rounded=0;orthogonalLoop=1;jettySize=auto;html=1;entryX=0;entryY=0.5;entryDx=0;entryDy=0;fontStyle=1" parent="1" source="QVGyrubyLwDDq1W49fJA-77" target="QVGyrubyLwDDq1W49fJA-78" edge="1">
          <mxGeometry relative="1" as="geometry" />
        </mxCell>
        <mxCell id="QVGyrubyLwDDq1W49fJA-77" value="Save current LoRa&lt;br&gt;parameters&lt;br&gt;in old_lora_parameters" style="rounded=0;whiteSpace=wrap;html=1;fontStyle=1" parent="1" vertex="1">
          <mxGeometry x="456.5" y="914" width="120" height="60" as="geometry" />
        </mxCell>
        <mxCell id="QVGyrubyLwDDq1W49fJA-81" style="edgeStyle=orthogonalEdgeStyle;rounded=0;orthogonalLoop=1;jettySize=auto;html=1;entryX=0.5;entryY=1;entryDx=0;entryDy=0;fontStyle=1" parent="1" source="QVGyrubyLwDDq1W49fJA-78" target="QVGyrubyLwDDq1W49fJA-80" edge="1">
          <mxGeometry relative="1" as="geometry">
            <Array as="points">
              <mxPoint x="776" y="940" />
            </Array>
          </mxGeometry>
        </mxCell>
        <mxCell id="QVGyrubyLwDDq1W49fJA-78" value="Update the LoRa parameters" style="rounded=0;whiteSpace=wrap;html=1;fontStyle=1" parent="1" vertex="1">
          <mxGeometry x="615.5" y="913" width="120" height="60" as="geometry" />
        </mxCell>
        <mxCell id="QVGyrubyLwDDq1W49fJA-80" value="Get a random time interval" style="rounded=0;whiteSpace=wrap;html=1;fontStyle=1" parent="1" vertex="1">
          <mxGeometry x="715.5" y="833" width="120" height="60" as="geometry" />
        </mxCell>
        <mxCell id="QVGyrubyLwDDq1W49fJA-90" style="edgeStyle=orthogonalEdgeStyle;rounded=0;orthogonalLoop=1;jettySize=auto;html=1;entryX=1.002;entryY=0.281;entryDx=0;entryDy=0;exitX=0.5;exitY=0;exitDx=0;exitDy=0;entryPerimeter=0;fontStyle=1" parent="1" source="QVGyrubyLwDDq1W49fJA-82" target="QVGyrubyLwDDq1W49fJA-88" edge="1">
          <mxGeometry relative="1" as="geometry">
            <mxPoint x="746.5" y="320" as="targetPoint" />
            <Array as="points">
              <mxPoint x="776" y="210" />
              <mxPoint x="379" y="210" />
            </Array>
          </mxGeometry>
        </mxCell>
        <mxCell id="QVGyrubyLwDDq1W49fJA-82" value="Schedule a Retransmite packet,&lt;br&gt;Enable retxSch" style="rounded=0;whiteSpace=wrap;html=1;fontStyle=1" parent="1" vertex="1">
          <mxGeometry x="715.5" y="743" width="120" height="50" as="geometry" />
        </mxCell>
        <mxCell id="QVGyrubyLwDDq1W49fJA-84" style="edgeStyle=orthogonalEdgeStyle;rounded=0;orthogonalLoop=1;jettySize=auto;html=1;entryX=0.502;entryY=1.018;entryDx=0;entryDy=0;entryPerimeter=0;fontStyle=1" parent="1" source="QVGyrubyLwDDq1W49fJA-80" target="QVGyrubyLwDDq1W49fJA-82" edge="1">
          <mxGeometry relative="1" as="geometry" />
        </mxCell>
        <mxCell id="QVGyrubyLwDDq1W49fJA-89" style="edgeStyle=orthogonalEdgeStyle;rounded=0;orthogonalLoop=1;jettySize=auto;html=1;entryX=1;entryY=0.5;entryDx=0;entryDy=0;fontStyle=1" parent="1" source="QVGyrubyLwDDq1W49fJA-88" target="QVGyrubyLwDDq1W49fJA-4" edge="1">
          <mxGeometry relative="1" as="geometry" />
        </mxCell>
        <mxCell id="QVGyrubyLwDDq1W49fJA-88" value="Enable&lt;div&gt;enableInterrupt flag&lt;br&gt;&lt;/div&gt;" style="rounded=0;whiteSpace=wrap;html=1;fontStyle=1" parent="1" vertex="1">
          <mxGeometry x="259" y="190" width="120" height="70" as="geometry" />
        </mxCell>
        <mxCell id="QVGyrubyLwDDq1W49fJA-96" style="edgeStyle=orthogonalEdgeStyle;rounded=0;orthogonalLoop=1;jettySize=auto;html=1;exitX=1;exitY=0.5;exitDx=0;exitDy=0;fontStyle=1" parent="1" source="QVGyrubyLwDDq1W49fJA-95" edge="1">
          <mxGeometry relative="1" as="geometry">
            <mxPoint x="487.85511757990855" y="1110.013698630137" as="sourcePoint" />
            <mxPoint x="380" y="200" as="targetPoint" />
            <Array as="points">
              <mxPoint x="471" y="1051" />
              <mxPoint x="471" y="1050" />
              <mxPoint x="900" y="1050" />
              <mxPoint x="900" y="200" />
            </Array>
          </mxGeometry>
        </mxCell>
        <mxCell id="QVGyrubyLwDDq1W49fJA-98" value="No" style="edgeLabel;html=1;align=center;verticalAlign=middle;resizable=0;points=[];fontStyle=1;labelBackgroundColor=none;" parent="QVGyrubyLwDDq1W49fJA-96" vertex="1" connectable="0">
          <mxGeometry x="-0.8664" y="1" relative="1" as="geometry">
            <mxPoint x="7" y="-7" as="offset" />
          </mxGeometry>
        </mxCell>
        <mxCell id="QVGyrubyLwDDq1W49fJA-101" style="edgeStyle=orthogonalEdgeStyle;rounded=0;orthogonalLoop=1;jettySize=auto;html=1;fontStyle=1;exitX=0.5;exitY=1;exitDx=0;exitDy=0;" parent="1" source="QVGyrubyLwDDq1W49fJA-95" edge="1">
          <mxGeometry relative="1" as="geometry">
            <Array as="points">
              <mxPoint x="409" y="1120" />
              <mxPoint x="492" y="1120" />
              <mxPoint x="492" y="1100" />
            </Array>
            <mxPoint x="408.18518518518476" y="1110.9998295449705" as="sourcePoint" />
            <mxPoint x="532" y="1100" as="targetPoint" />
          </mxGeometry>
        </mxCell>
        <mxCell id="QVGyrubyLwDDq1W49fJA-105" value="Yes" style="edgeLabel;html=1;align=center;verticalAlign=middle;resizable=0;points=[];fontStyle=1;labelBackgroundColor=none;" parent="QVGyrubyLwDDq1W49fJA-101" vertex="1" connectable="0">
          <mxGeometry x="-0.1847" y="2" relative="1" as="geometry">
            <mxPoint x="-6" y="-18" as="offset" />
          </mxGeometry>
        </mxCell>
        <mxCell id="QVGyrubyLwDDq1W49fJA-95" value="Is the&amp;nbsp;&lt;div&gt;t&lt;span style=&quot;background-color: initial;&quot;&gt;imeout&amp;nbsp;&lt;/span&gt;&lt;span style=&quot;background-color: initial;&quot;&gt;reached&lt;/span&gt;&lt;div&gt;for another&lt;br&gt;health&amp;nbsp;&lt;/div&gt;&lt;div&gt;check&amp;nbsp;&lt;span style=&quot;background-color: initial;&quot;&gt;ping&lt;/span&gt;&lt;/div&gt;&lt;/div&gt;" style="rhombus;whiteSpace=wrap;html=1;fontStyle=1" parent="1" vertex="1">
          <mxGeometry x="344" y="991" width="130.37" height="120" as="geometry" />
        </mxCell>
        <mxCell id="keQh2NvHmvrn8WmfqUB1-1" style="edgeStyle=orthogonalEdgeStyle;rounded=0;orthogonalLoop=1;jettySize=auto;html=1;entryX=0;entryY=0.5;entryDx=0;entryDy=0;" parent="1" source="QVGyrubyLwDDq1W49fJA-99" target="QVGyrubyLwDDq1W49fJA-102" edge="1">
          <mxGeometry relative="1" as="geometry" />
        </mxCell>
        <mxCell id="QVGyrubyLwDDq1W49fJA-99" value="Get a random time interval" style="rounded=0;whiteSpace=wrap;html=1;fontStyle=1" parent="1" vertex="1">
          <mxGeometry x="532" y="1070" width="120" height="60" as="geometry" />
        </mxCell>
        <mxCell id="QVGyrubyLwDDq1W49fJA-104" style="edgeStyle=orthogonalEdgeStyle;rounded=0;orthogonalLoop=1;jettySize=auto;html=1;endArrow=oval;endFill=1;exitX=1;exitY=0.5;exitDx=0;exitDy=0;fontStyle=1" parent="1" edge="1">
          <mxGeometry relative="1" as="geometry">
            <mxPoint x="900" y="1050" as="targetPoint" />
            <mxPoint x="820" y="1100" as="sourcePoint" />
            <Array as="points">
              <mxPoint x="900" y="1100" />
              <mxPoint x="900" y="1050" />
            </Array>
          </mxGeometry>
        </mxCell>
        <mxCell id="QVGyrubyLwDDq1W49fJA-102" value="Schadule a&lt;br&gt;Health-check ping&lt;br&gt;Response" style="rounded=0;whiteSpace=wrap;html=1;fontStyle=1" parent="1" vertex="1">
          <mxGeometry x="700" y="1070" width="120" height="60" as="geometry" />
        </mxCell>
        <mxCell id="wZ7d8AIyB8IBaUM0izVy-11" style="edgeStyle=orthogonalEdgeStyle;rounded=0;orthogonalLoop=1;jettySize=auto;html=1;entryX=0;entryY=0.5;entryDx=0;entryDy=0;" parent="1" source="QVGyrubyLwDDq1W49fJA-110" target="QVGyrubyLwDDq1W49fJA-41" edge="1">
          <mxGeometry relative="1" as="geometry">
            <Array as="points">
              <mxPoint x="162" y="540" />
              <mxPoint x="374" y="540" />
            </Array>
          </mxGeometry>
        </mxCell>
        <mxCell id="wZ7d8AIyB8IBaUM0izVy-12" value="No" style="edgeLabel;html=1;align=center;verticalAlign=middle;resizable=0;points=[];fontStyle=1;labelBackgroundColor=none;" parent="wZ7d8AIyB8IBaUM0izVy-11" vertex="1" connectable="0">
          <mxGeometry x="-0.6009" y="1" relative="1" as="geometry">
            <mxPoint x="5" y="-6" as="offset" />
          </mxGeometry>
        </mxCell>
        <mxCell id="QVGyrubyLwDDq1W49fJA-110" value="Is there&lt;br style=&quot;font-size: 10px;&quot;&gt;schaduled&lt;br style=&quot;font-size: 10px;&quot;&gt;packet&lt;div style=&quot;font-size: 10px;&quot;&gt;conditions&amp;nbsp;&lt;/div&gt;&lt;div style=&quot;font-size: 10px;&quot;&gt;met?&lt;/div&gt;" style="rhombus;whiteSpace=wrap;html=1;fontSize=10;fontStyle=1" parent="1" vertex="1">
          <mxGeometry x="117.5" y="443" width="88" height="90" as="geometry" />
        </mxCell>
        <mxCell id="QVGyrubyLwDDq1W49fJA-113" style="edgeStyle=orthogonalEdgeStyle;rounded=0;orthogonalLoop=1;jettySize=auto;html=1;entryX=0;entryY=0.5;entryDx=0;entryDy=0;fontStyle=1" parent="1" source="QVGyrubyLwDDq1W49fJA-111" target="QVGyrubyLwDDq1W49fJA-41" edge="1">
          <mxGeometry relative="1" as="geometry">
            <Array as="points">
              <mxPoint x="360" y="489" />
              <mxPoint x="360" y="475" />
            </Array>
          </mxGeometry>
        </mxCell>
        <mxCell id="QVGyrubyLwDDq1W49fJA-111" value="Transmit the packet,&lt;br&gt;&lt;div&gt;enable the&lt;/div&gt;&lt;div&gt;isTransmitting flag&lt;/div&gt;" style="rounded=0;whiteSpace=wrap;html=1;fontStyle=1" parent="1" vertex="1">
          <mxGeometry x="230" y="459" width="120" height="60" as="geometry" />
        </mxCell>
        <mxCell id="QVGyrubyLwDDq1W49fJA-112" style="edgeStyle=orthogonalEdgeStyle;rounded=0;orthogonalLoop=1;jettySize=auto;html=1;entryX=0;entryY=0.5;entryDx=0;entryDy=0;fontStyle=1" parent="1" source="QVGyrubyLwDDq1W49fJA-110" target="QVGyrubyLwDDq1W49fJA-111" edge="1">
          <mxGeometry relative="1" as="geometry" />
        </mxCell>
        <mxCell id="wZ7d8AIyB8IBaUM0izVy-9" value="Yes" style="edgeLabel;html=1;align=center;verticalAlign=middle;resizable=0;points=[];labelBackgroundColor=none;fontStyle=1" parent="QVGyrubyLwDDq1W49fJA-112" vertex="1" connectable="0">
          <mxGeometry x="-0.7051" y="1" relative="1" as="geometry">
            <mxPoint x="1" y="-7" as="offset" />
          </mxGeometry>
        </mxCell>
        <mxCell id="QVGyrubyLwDDq1W49fJA-115" style="edgeStyle=orthogonalEdgeStyle;rounded=0;orthogonalLoop=1;jettySize=auto;html=1;entryX=0.994;entryY=0.867;entryDx=0;entryDy=0;entryPerimeter=0;exitX=1;exitY=0.5;exitDx=0;exitDy=0;fontStyle=1" parent="1" source="QVGyrubyLwDDq1W49fJA-41" target="QVGyrubyLwDDq1W49fJA-88" edge="1">
          <mxGeometry relative="1" as="geometry">
            <Array as="points">
              <mxPoint x="490" y="475" />
              <mxPoint x="490" y="420" />
              <mxPoint x="540" y="420" />
              <mxPoint x="540" y="251" />
            </Array>
          </mxGeometry>
        </mxCell>
        <mxCell id="wZ7d8AIyB8IBaUM0izVy-10" value="No" style="edgeLabel;html=1;align=center;verticalAlign=middle;resizable=0;points=[];fontStyle=1;labelBackgroundColor=none;" parent="QVGyrubyLwDDq1W49fJA-115" vertex="1" connectable="0">
          <mxGeometry x="-0.6214" y="1" relative="1" as="geometry">
            <mxPoint y="-9" as="offset" />
          </mxGeometry>
        </mxCell>
        <mxCell id="wZ7d8AIyB8IBaUM0izVy-6" style="edgeStyle=orthogonalEdgeStyle;rounded=0;orthogonalLoop=1;jettySize=auto;html=1;endArrow=oval;endFill=1;" parent="1" source="wZ7d8AIyB8IBaUM0izVy-4" edge="1">
          <mxGeometry relative="1" as="geometry">
            <mxPoint x="900" y="1100" as="targetPoint" />
            <Array as="points">
              <mxPoint x="203" y="1160" />
              <mxPoint x="900" y="1160" />
              <mxPoint x="900" y="1100" />
            </Array>
          </mxGeometry>
        </mxCell>
        <mxCell id="wZ7d8AIyB8IBaUM0izVy-4" value="Log&lt;br&gt;Error" style="whiteSpace=wrap;html=1;fontStyle=1;" parent="1" vertex="1">
          <mxGeometry x="145.5" y="1064" width="114.5" height="50" as="geometry" />
        </mxCell>
        <mxCell id="nbQrimUv1-MCqe2rZsde-3" style="edgeStyle=orthogonalEdgeStyle;rounded=0;orthogonalLoop=1;jettySize=auto;html=1;" edge="1" parent="1" source="nbQrimUv1-MCqe2rZsde-1" target="nbQrimUv1-MCqe2rZsde-2">
          <mxGeometry relative="1" as="geometry" />
        </mxCell>
        <mxCell id="nbQrimUv1-MCqe2rZsde-1" value="Start" style="rounded=1;whiteSpace=wrap;html=1;arcSize=50;fontStyle=1" vertex="1" parent="1">
          <mxGeometry x="1088.37" y="1370" width="120" height="60" as="geometry" />
        </mxCell>
        <mxCell id="nbQrimUv1-MCqe2rZsde-5" style="edgeStyle=orthogonalEdgeStyle;rounded=0;orthogonalLoop=1;jettySize=auto;html=1;" edge="1" parent="1" source="nbQrimUv1-MCqe2rZsde-2" target="nbQrimUv1-MCqe2rZsde-4">
          <mxGeometry relative="1" as="geometry" />
        </mxCell>
        <mxCell id="nbQrimUv1-MCqe2rZsde-2" value="Initiate LoRa radio&lt;br&gt;with given&amp;nbsp;&lt;div&gt;parameters&lt;/div&gt;&lt;div&gt;attach and enable&lt;br&gt;Interrupts&lt;/div&gt;" style="rounded=0;whiteSpace=wrap;html=1;fontStyle=1" vertex="1" parent="1">
          <mxGeometry x="835.5" y="1360" width="120" height="80" as="geometry" />
        </mxCell>
        <mxCell id="nbQrimUv1-MCqe2rZsde-33" style="edgeStyle=orthogonalEdgeStyle;rounded=0;orthogonalLoop=1;jettySize=auto;html=1;fontFamily=Helvetica;fontSize=11;fontColor=default;fontStyle=1;labelBackgroundColor=none;resizable=0;" edge="1" parent="1" source="nbQrimUv1-MCqe2rZsde-4" target="nbQrimUv1-MCqe2rZsde-20">
          <mxGeometry relative="1" as="geometry">
            <Array as="points">
              <mxPoint x="890" y="1630" />
            </Array>
          </mxGeometry>
        </mxCell>
        <mxCell id="nbQrimUv1-MCqe2rZsde-4" value="Initiate Listening Mode" style="rounded=0;whiteSpace=wrap;html=1;fontStyle=1" vertex="1" parent="1">
          <mxGeometry x="835.5" y="1470" width="120" height="40" as="geometry" />
        </mxCell>
        <mxCell id="nbQrimUv1-MCqe2rZsde-9" style="edgeStyle=orthogonalEdgeStyle;rounded=0;orthogonalLoop=1;jettySize=auto;html=1;entryX=1;entryY=0.5;entryDx=0;entryDy=0;" edge="1" parent="1" source="nbQrimUv1-MCqe2rZsde-6" target="nbQrimUv1-MCqe2rZsde-4">
          <mxGeometry relative="1" as="geometry" />
        </mxCell>
        <mxCell id="nbQrimUv1-MCqe2rZsde-6" value="Enable&lt;div&gt;enableInterrupt flag&lt;br&gt;&lt;/div&gt;" style="rounded=0;whiteSpace=wrap;html=1;fontStyle=1" vertex="1" parent="1">
          <mxGeometry x="1010" y="1455" width="120" height="70" as="geometry" />
        </mxCell>
        <mxCell id="nbQrimUv1-MCqe2rZsde-25" style="edgeStyle=orthogonalEdgeStyle;rounded=0;orthogonalLoop=1;jettySize=auto;html=1;exitX=0.5;exitY=0;exitDx=0;exitDy=0;" edge="1" parent="1" source="nbQrimUv1-MCqe2rZsde-17" target="nbQrimUv1-MCqe2rZsde-6">
          <mxGeometry relative="1" as="geometry">
            <Array as="points">
              <mxPoint x="1263" y="1510" />
            </Array>
          </mxGeometry>
        </mxCell>
        <mxCell id="nbQrimUv1-MCqe2rZsde-26" value="No" style="edgeLabel;html=1;align=center;verticalAlign=middle;resizable=0;points=[];fontStyle=1;labelBackgroundColor=none;" vertex="1" connectable="0" parent="nbQrimUv1-MCqe2rZsde-25">
          <mxGeometry x="-0.6607" y="-3" relative="1" as="geometry">
            <mxPoint x="-21" as="offset" />
          </mxGeometry>
        </mxCell>
        <mxCell id="nbQrimUv1-MCqe2rZsde-29" style="edgeStyle=orthogonalEdgeStyle;rounded=0;orthogonalLoop=1;jettySize=auto;html=1;exitX=0.5;exitY=1;exitDx=0;exitDy=0;entryX=0.5;entryY=0;entryDx=0;entryDy=0;fontFamily=Helvetica;fontSize=11;fontColor=default;fontStyle=1;labelBackgroundColor=none;resizable=0;" edge="1" parent="1" target="nbQrimUv1-MCqe2rZsde-28">
          <mxGeometry relative="1" as="geometry">
            <mxPoint x="1262.5" y="1670" as="sourcePoint" />
          </mxGeometry>
        </mxCell>
        <mxCell id="nbQrimUv1-MCqe2rZsde-32" value="Yes" style="edgeLabel;html=1;align=center;verticalAlign=middle;resizable=0;points=[];fontFamily=Helvetica;fontSize=11;fontColor=default;fontStyle=1;labelBackgroundColor=none;fillColor=none;gradientColor=none;" vertex="1" connectable="0" parent="nbQrimUv1-MCqe2rZsde-29">
          <mxGeometry x="-0.2616" y="2" relative="1" as="geometry">
            <mxPoint x="10" as="offset" />
          </mxGeometry>
        </mxCell>
        <mxCell id="nbQrimUv1-MCqe2rZsde-17" value="Action flag&lt;br&gt;enabled?" style="rhombus;whiteSpace=wrap;html=1;fontStyle=1" vertex="1" parent="1">
          <mxGeometry x="1210.5" y="1560" width="104" height="110" as="geometry" />
        </mxCell>
        <mxCell id="nbQrimUv1-MCqe2rZsde-31" style="edgeStyle=orthogonalEdgeStyle;rounded=0;orthogonalLoop=1;jettySize=auto;html=1;entryX=0;entryY=0.5;entryDx=0;entryDy=0;fontFamily=Helvetica;fontSize=11;fontColor=default;fontStyle=1;labelBackgroundColor=none;resizable=0;exitX=0.5;exitY=1;exitDx=0;exitDy=0;" edge="1" parent="1" source="nbQrimUv1-MCqe2rZsde-20">
          <mxGeometry relative="1" as="geometry">
            <mxPoint x="1210.5" y="1615" as="targetPoint" />
            <Array as="points">
              <mxPoint x="964" y="1690" />
              <mxPoint x="1211" y="1690" />
            </Array>
          </mxGeometry>
        </mxCell>
        <mxCell id="nbQrimUv1-MCqe2rZsde-34" value="No&lt;div&gt;&lt;br&gt;&lt;/div&gt;" style="edgeLabel;html=1;align=center;verticalAlign=middle;resizable=0;points=[];fontFamily=Helvetica;fontSize=11;fontColor=default;fontStyle=1;labelBackgroundColor=none;fillColor=none;gradientColor=none;" vertex="1" connectable="0" parent="nbQrimUv1-MCqe2rZsde-31">
          <mxGeometry x="-0.2473" y="-1" relative="1" as="geometry">
            <mxPoint as="offset" />
          </mxGeometry>
        </mxCell>
        <mxCell id="nbQrimUv1-MCqe2rZsde-20" value="Is there&lt;br style=&quot;font-size: 10px;&quot;&gt;schaduled&lt;br style=&quot;font-size: 10px;&quot;&gt;packet&lt;div style=&quot;font-size: 10px;&quot;&gt;conditions&amp;nbsp;&lt;/div&gt;&lt;div style=&quot;font-size: 10px;&quot;&gt;met?&lt;/div&gt;" style="rhombus;whiteSpace=wrap;html=1;fontSize=10;fontStyle=1" vertex="1" parent="1">
          <mxGeometry x="920" y="1584" width="88" height="90" as="geometry" />
        </mxCell>
        <mxCell id="nbQrimUv1-MCqe2rZsde-21" style="edgeStyle=orthogonalEdgeStyle;rounded=0;orthogonalLoop=1;jettySize=auto;html=1;entryX=0;entryY=0.5;entryDx=0;entryDy=0;fontStyle=1" edge="1" parent="1" source="nbQrimUv1-MCqe2rZsde-22">
          <mxGeometry relative="1" as="geometry">
            <Array as="points">
              <mxPoint x="1196.5" y="1629" />
              <mxPoint x="1196.5" y="1615" />
            </Array>
            <mxPoint x="1210.5" y="1615" as="targetPoint" />
          </mxGeometry>
        </mxCell>
        <mxCell id="nbQrimUv1-MCqe2rZsde-22" value="Transmit the packet,&lt;br&gt;&lt;div&gt;enable the&lt;/div&gt;&lt;div&gt;isTransmitting flag&lt;/div&gt;" style="rounded=0;whiteSpace=wrap;html=1;fontStyle=1" vertex="1" parent="1">
          <mxGeometry x="1066.5" y="1599" width="120" height="60" as="geometry" />
        </mxCell>
        <mxCell id="nbQrimUv1-MCqe2rZsde-23" style="edgeStyle=orthogonalEdgeStyle;rounded=0;orthogonalLoop=1;jettySize=auto;html=1;entryX=0;entryY=0.5;entryDx=0;entryDy=0;fontStyle=1" edge="1" parent="1" source="nbQrimUv1-MCqe2rZsde-20" target="nbQrimUv1-MCqe2rZsde-22">
          <mxGeometry relative="1" as="geometry" />
        </mxCell>
        <mxCell id="nbQrimUv1-MCqe2rZsde-24" value="Yes" style="edgeLabel;html=1;align=center;verticalAlign=middle;resizable=0;points=[];labelBackgroundColor=none;fontStyle=1" vertex="1" connectable="0" parent="nbQrimUv1-MCqe2rZsde-23">
          <mxGeometry x="-0.7051" y="1" relative="1" as="geometry">
            <mxPoint x="1" y="-7" as="offset" />
          </mxGeometry>
        </mxCell>
        <mxCell id="nbQrimUv1-MCqe2rZsde-36" style="edgeStyle=orthogonalEdgeStyle;rounded=0;orthogonalLoop=1;jettySize=auto;html=1;entryX=1;entryY=0.5;entryDx=0;entryDy=0;fontFamily=Helvetica;fontSize=11;fontColor=default;fontStyle=1;labelBackgroundColor=none;resizable=0;" edge="1" parent="1" source="nbQrimUv1-MCqe2rZsde-28" target="nbQrimUv1-MCqe2rZsde-35">
          <mxGeometry relative="1" as="geometry" />
        </mxCell>
        <mxCell id="nbQrimUv1-MCqe2rZsde-28" value="Make enableInterrupt&lt;br&gt;and Action flags False" style="rounded=0;whiteSpace=wrap;html=1;fontStyle=1" vertex="1" parent="1">
          <mxGeometry x="1202.5" y="1710" width="120" height="60" as="geometry" />
        </mxCell>
        <mxCell id="nbQrimUv1-MCqe2rZsde-35" value="isTransmitting&amp;nbsp;&lt;div style=&quot;font-size: 12px;&quot;&gt;flag&lt;div style=&quot;font-size: 12px;&quot;&gt;enabled?&lt;/div&gt;&lt;/div&gt;" style="rhombus;whiteSpace=wrap;html=1;fontStyle=1;fontSize=12;" vertex="1" parent="1">
          <mxGeometry x="1020" y="1710" width="125" height="120" as="geometry" />
        </mxCell>
        <mxCell id="nbQrimUv1-MCqe2rZsde-37" style="edgeStyle=orthogonalEdgeStyle;rounded=0;orthogonalLoop=1;jettySize=auto;html=1;entryX=0;entryY=0.5;entryDx=0;entryDy=0;fontStyle=1" edge="1" parent="1" source="nbQrimUv1-MCqe2rZsde-38" target="nbQrimUv1-MCqe2rZsde-41">
          <mxGeometry relative="1" as="geometry" />
        </mxCell>
        <mxCell id="nbQrimUv1-MCqe2rZsde-38" value="Log transmission&lt;br&gt;status" style="rounded=0;whiteSpace=wrap;html=1;fontStyle=1" vertex="1" parent="1">
          <mxGeometry x="1040" y="1883" width="120" height="60" as="geometry" />
        </mxCell>
        <mxCell id="nbQrimUv1-MCqe2rZsde-39" style="edgeStyle=orthogonalEdgeStyle;rounded=0;orthogonalLoop=1;jettySize=auto;html=1;entryX=0.5;entryY=1;entryDx=0;entryDy=0;fontStyle=1" edge="1" parent="1" source="nbQrimUv1-MCqe2rZsde-41" target="nbQrimUv1-MCqe2rZsde-43">
          <mxGeometry relative="1" as="geometry">
            <mxPoint x="1406.5" y="1823" as="targetPoint" />
            <Array as="points">
              <mxPoint x="1396.5" y="1913" />
            </Array>
          </mxGeometry>
        </mxCell>
        <mxCell id="nbQrimUv1-MCqe2rZsde-40" value="Yes" style="edgeLabel;html=1;align=center;verticalAlign=middle;resizable=0;points=[];fontStyle=1;labelBackgroundColor=none;" vertex="1" connectable="0" parent="nbQrimUv1-MCqe2rZsde-39">
          <mxGeometry x="-0.1689" y="3" relative="1" as="geometry">
            <mxPoint x="13" y="-21" as="offset" />
          </mxGeometry>
        </mxCell>
        <mxCell id="nbQrimUv1-MCqe2rZsde-41" value="retxSch flag&amp;nbsp;&lt;div style=&quot;font-size: 12px;&quot;&gt;Enabled?&lt;/div&gt;" style="rhombus;whiteSpace=wrap;html=1;fontStyle=1;fontSize=12;" vertex="1" parent="1">
          <mxGeometry x="1246.5" y="1848" width="130" height="130" as="geometry" />
        </mxCell>
        <mxCell id="nbQrimUv1-MCqe2rZsde-42" style="edgeStyle=orthogonalEdgeStyle;rounded=0;orthogonalLoop=1;jettySize=auto;html=1;entryX=0.5;entryY=1;entryDx=0;entryDy=0;fontStyle=1" edge="1" parent="1" source="nbQrimUv1-MCqe2rZsde-43" target="nbQrimUv1-MCqe2rZsde-45">
          <mxGeometry relative="1" as="geometry" />
        </mxCell>
        <mxCell id="nbQrimUv1-MCqe2rZsde-43" value="retxSch flag to false&lt;br&gt;Revert LoRa parameters to selected values" style="rounded=0;whiteSpace=wrap;html=1;fontStyle=1" vertex="1" parent="1">
          <mxGeometry x="1336.5" y="1753" width="120" height="60" as="geometry" />
        </mxCell>
        <mxCell id="nbQrimUv1-MCqe2rZsde-44" style="edgeStyle=orthogonalEdgeStyle;rounded=0;orthogonalLoop=1;jettySize=auto;html=1;fontStyle=1;" edge="1" parent="1" target="nbQrimUv1-MCqe2rZsde-6">
          <mxGeometry relative="1" as="geometry">
            <mxPoint x="1397" y="1630" as="sourcePoint" />
            <mxPoint x="1189.5" y="1390" as="targetPoint" />
            <Array as="points">
              <mxPoint x="1397" y="1496" />
            </Array>
          </mxGeometry>
        </mxCell>
        <mxCell id="nbQrimUv1-MCqe2rZsde-45" value="&lt;div&gt;Disable&lt;/div&gt;isTransmitting flag" style="rounded=0;whiteSpace=wrap;html=1;fontStyle=1" vertex="1" parent="1">
          <mxGeometry x="1336.5" y="1633" width="120" height="70" as="geometry" />
        </mxCell>
        <mxCell id="nbQrimUv1-MCqe2rZsde-46" style="edgeStyle=orthogonalEdgeStyle;rounded=0;orthogonalLoop=1;jettySize=auto;html=1;exitX=0.5;exitY=1;exitDx=0;exitDy=0;fontFamily=Helvetica;fontSize=11;fontColor=default;fontStyle=1;labelBackgroundColor=none;resizable=0;" edge="1" parent="1" source="nbQrimUv1-MCqe2rZsde-35" target="nbQrimUv1-MCqe2rZsde-38">
          <mxGeometry relative="1" as="geometry" />
        </mxCell>
        <mxCell id="nbQrimUv1-MCqe2rZsde-47" value="Yes" style="edgeLabel;html=1;align=center;verticalAlign=middle;resizable=0;points=[];fontFamily=Helvetica;fontSize=11;fontColor=default;fontStyle=1;labelBackgroundColor=none;fillColor=none;gradientColor=none;" vertex="1" connectable="0" parent="nbQrimUv1-MCqe2rZsde-46">
          <mxGeometry x="-0.3066" y="2" relative="1" as="geometry">
            <mxPoint x="15" y="-7" as="offset" />
          </mxGeometry>
        </mxCell>
        <mxCell id="nbQrimUv1-MCqe2rZsde-48" style="edgeStyle=orthogonalEdgeStyle;rounded=0;orthogonalLoop=1;jettySize=auto;html=1;fontStyle=1;" edge="1" parent="1" target="nbQrimUv1-MCqe2rZsde-50">
          <mxGeometry relative="1" as="geometry">
            <mxPoint x="883.45" y="1880" as="targetPoint" />
            <Array as="points">
              <mxPoint x="1020" y="1769" />
              <mxPoint x="1020" y="1770" />
              <mxPoint x="960" y="1770" />
            </Array>
            <mxPoint x="1020" y="1770" as="sourcePoint" />
          </mxGeometry>
        </mxCell>
        <mxCell id="nbQrimUv1-MCqe2rZsde-49" value="No" style="edgeLabel;html=1;align=center;verticalAlign=middle;resizable=0;points=[];fontStyle=1;labelBackgroundColor=none;" vertex="1" connectable="0" parent="nbQrimUv1-MCqe2rZsde-48">
          <mxGeometry x="0.0508" y="3" relative="1" as="geometry">
            <mxPoint x="17" y="-13" as="offset" />
          </mxGeometry>
        </mxCell>
        <mxCell id="nbQrimUv1-MCqe2rZsde-58" style="edgeStyle=orthogonalEdgeStyle;rounded=0;orthogonalLoop=1;jettySize=auto;html=1;entryX=0.5;entryY=0;entryDx=0;entryDy=0;fontFamily=Helvetica;fontSize=11;fontColor=default;fontStyle=1;labelBackgroundColor=none;resizable=0;" edge="1" parent="1" source="nbQrimUv1-MCqe2rZsde-50" target="nbQrimUv1-MCqe2rZsde-55">
          <mxGeometry relative="1" as="geometry" />
        </mxCell>
        <mxCell id="nbQrimUv1-MCqe2rZsde-50" value="Save the payload&lt;br&gt;&lt;div&gt;And&lt;/div&gt;&lt;div&gt;Status code&lt;/div&gt;" style="rounded=0;whiteSpace=wrap;html=1;fontStyle=1" vertex="1" parent="1">
          <mxGeometry x="890" y="1880" width="120" height="60" as="geometry" />
        </mxCell>
        <mxCell id="nbQrimUv1-MCqe2rZsde-59" style="edgeStyle=orthogonalEdgeStyle;rounded=0;orthogonalLoop=1;jettySize=auto;html=1;entryX=0;entryY=0.75;entryDx=0;entryDy=0;fontFamily=Helvetica;fontSize=11;fontColor=default;fontStyle=1;labelBackgroundColor=none;resizable=0;" edge="1" parent="1" source="nbQrimUv1-MCqe2rZsde-55" target="nbQrimUv1-MCqe2rZsde-56">
          <mxGeometry relative="1" as="geometry">
            <Array as="points">
              <mxPoint x="880" y="2035" />
              <mxPoint x="880" y="2197" />
            </Array>
          </mxGeometry>
        </mxCell>
        <mxCell id="nbQrimUv1-MCqe2rZsde-62" style="edgeStyle=orthogonalEdgeStyle;rounded=0;orthogonalLoop=1;jettySize=auto;html=1;entryX=0;entryY=0.5;entryDx=0;entryDy=0;fontFamily=Helvetica;fontSize=11;fontColor=default;fontStyle=1;labelBackgroundColor=none;resizable=0;" edge="1" parent="1" source="nbQrimUv1-MCqe2rZsde-55" target="nbQrimUv1-MCqe2rZsde-61">
          <mxGeometry relative="1" as="geometry" />
        </mxCell>
        <mxCell id="nbQrimUv1-MCqe2rZsde-74" value="No" style="edgeLabel;html=1;align=center;verticalAlign=middle;resizable=0;points=[];fontFamily=Helvetica;fontSize=11;fontColor=default;fontStyle=1;labelBackgroundColor=none;fillColor=none;gradientColor=none;" vertex="1" connectable="0" parent="nbQrimUv1-MCqe2rZsde-62">
          <mxGeometry x="0.4352" y="1" relative="1" as="geometry">
            <mxPoint x="-24" y="-8" as="offset" />
          </mxGeometry>
        </mxCell>
        <mxCell id="nbQrimUv1-MCqe2rZsde-55" value="Is there are&lt;div&gt;errors in&lt;/div&gt;&lt;div&gt;reception?&lt;/div&gt;" style="rhombus;whiteSpace=wrap;html=1;fontStyle=1" vertex="1" parent="1">
          <mxGeometry x="887.5" y="1970" width="125" height="130" as="geometry" />
        </mxCell>
        <mxCell id="nbQrimUv1-MCqe2rZsde-56" value="Log&lt;br&gt;Error" style="whiteSpace=wrap;html=1;fontStyle=1;" vertex="1" parent="1">
          <mxGeometry x="913" y="2160" width="114.5" height="50" as="geometry" />
        </mxCell>
        <mxCell id="nbQrimUv1-MCqe2rZsde-60" value="Yes" style="text;html=1;align=center;verticalAlign=middle;resizable=0;points=[];autosize=1;strokeColor=none;fillColor=none;fontFamily=Helvetica;fontSize=11;fontColor=default;fontStyle=1;labelBackgroundColor=none;" vertex="1" parent="1">
          <mxGeometry x="873" y="2100" width="40" height="30" as="geometry" />
        </mxCell>
        <mxCell id="nbQrimUv1-MCqe2rZsde-67" style="edgeStyle=orthogonalEdgeStyle;rounded=0;orthogonalLoop=1;jettySize=auto;html=1;entryX=0;entryY=0.5;entryDx=0;entryDy=0;fontFamily=Helvetica;fontSize=11;fontColor=default;fontStyle=1;labelBackgroundColor=none;resizable=0;" edge="1" parent="1" source="nbQrimUv1-MCqe2rZsde-61" target="nbQrimUv1-MCqe2rZsde-65">
          <mxGeometry relative="1" as="geometry">
            <Array as="points">
              <mxPoint x="1120" y="2136" />
            </Array>
          </mxGeometry>
        </mxCell>
        <mxCell id="nbQrimUv1-MCqe2rZsde-61" value="Start a Retransmission" style="rounded=0;whiteSpace=wrap;html=1;align=center;verticalAlign=middle;fontFamily=Helvetica;fontSize=11;fontColor=#0000FF;fontStyle=1;labelBackgroundColor=none;resizable=0;fillColor=none;gradientColor=none;" vertex="1" parent="1">
          <mxGeometry x="1066.5" y="2005" width="120" height="60" as="geometry" />
        </mxCell>
        <mxCell id="nbQrimUv1-MCqe2rZsde-63" value="Reconfig&lt;br&gt;Message" style="edgeLabel;html=1;align=center;verticalAlign=middle;resizable=0;points=[];fontStyle=1;labelBackgroundColor=none;" vertex="1" connectable="0" parent="1">
          <mxGeometry x="1387" y="2120" as="geometry" />
        </mxCell>
        <mxCell id="nbQrimUv1-MCqe2rZsde-64" value="Health Ping" style="edgeLabel;html=1;align=center;verticalAlign=middle;resizable=0;points=[];labelBackgroundColor=none;fontStyle=1" vertex="1" connectable="0" parent="1">
          <mxGeometry x="1277" y="2200" as="geometry" />
        </mxCell>
        <mxCell id="nbQrimUv1-MCqe2rZsde-72" style="edgeStyle=orthogonalEdgeStyle;rounded=0;orthogonalLoop=1;jettySize=auto;html=1;exitX=0.5;exitY=0;exitDx=0;exitDy=0;entryX=0.5;entryY=1;entryDx=0;entryDy=0;fontFamily=Helvetica;fontSize=11;fontColor=default;fontStyle=1;labelBackgroundColor=none;resizable=0;" edge="1" parent="1" source="nbQrimUv1-MCqe2rZsde-65" target="nbQrimUv1-MCqe2rZsde-71">
          <mxGeometry relative="1" as="geometry" />
        </mxCell>
        <mxCell id="nbQrimUv1-MCqe2rZsde-76" style="edgeStyle=orthogonalEdgeStyle;rounded=0;orthogonalLoop=1;jettySize=auto;html=1;exitX=0.5;exitY=1;exitDx=0;exitDy=0;entryX=0;entryY=0.5;entryDx=0;entryDy=0;fontFamily=Helvetica;fontSize=11;fontColor=default;fontStyle=1;labelBackgroundColor=none;resizable=0;" edge="1" parent="1" source="nbQrimUv1-MCqe2rZsde-65" target="nbQrimUv1-MCqe2rZsde-75">
          <mxGeometry relative="1" as="geometry" />
        </mxCell>
        <mxCell id="nbQrimUv1-MCqe2rZsde-65" value="What is the&lt;br&gt;packet type" style="rhombus;whiteSpace=wrap;html=1;fontStyle=1" vertex="1" parent="1">
          <mxGeometry x="1226.5" y="2080" width="110" height="112" as="geometry" />
        </mxCell>
        <mxCell id="nbQrimUv1-MCqe2rZsde-70" style="edgeStyle=orthogonalEdgeStyle;rounded=0;orthogonalLoop=1;jettySize=auto;html=1;fontStyle=1;" edge="1" parent="1" source="nbQrimUv1-MCqe2rZsde-71">
          <mxGeometry relative="1" as="geometry">
            <Array as="points">
              <mxPoint x="1470" y="2010" />
              <mxPoint x="1470" y="1480" />
            </Array>
            <mxPoint x="1130" y="1480.0000000000002" as="targetPoint" />
            <mxPoint x="1351" y="2010" as="sourcePoint" />
          </mxGeometry>
        </mxCell>
        <mxCell id="nbQrimUv1-MCqe2rZsde-71" value="Notify and trigger the&lt;br&gt;warning" style="rounded=0;whiteSpace=wrap;html=1;fontStyle=1" vertex="1" parent="1">
          <mxGeometry x="1221.5" y="1990" width="120" height="60" as="geometry" />
        </mxCell>
        <mxCell id="nbQrimUv1-MCqe2rZsde-80" style="edgeStyle=orthogonalEdgeStyle;rounded=0;orthogonalLoop=1;jettySize=auto;html=1;entryX=0;entryY=0.5;entryDx=0;entryDy=0;fontFamily=Helvetica;fontSize=11;fontColor=default;fontStyle=1;labelBackgroundColor=none;resizable=0;exitX=0.5;exitY=1;exitDx=0;exitDy=0;" edge="1" parent="1" source="nbQrimUv1-MCqe2rZsde-75" target="nbQrimUv1-MCqe2rZsde-78">
          <mxGeometry relative="1" as="geometry">
            <Array as="points">
              <mxPoint x="1442" y="2270" />
            </Array>
          </mxGeometry>
        </mxCell>
        <mxCell id="nbQrimUv1-MCqe2rZsde-75" value="Is the&amp;nbsp;&lt;div&gt;t&lt;span style=&quot;background-color: initial;&quot;&gt;imeout&amp;nbsp;&lt;/span&gt;&lt;span style=&quot;background-color: initial;&quot;&gt;reached&lt;/span&gt;&lt;div&gt;for another&lt;br&gt;health&amp;nbsp;&lt;/div&gt;&lt;div&gt;check&amp;nbsp;&lt;span style=&quot;background-color: initial;&quot;&gt;ping&lt;/span&gt;&lt;/div&gt;&lt;/div&gt;" style="rhombus;whiteSpace=wrap;html=1;fontStyle=1" vertex="1" parent="1">
          <mxGeometry x="1376.5" y="2140" width="130.37" height="120" as="geometry" />
        </mxCell>
        <mxCell id="nbQrimUv1-MCqe2rZsde-81" style="edgeStyle=orthogonalEdgeStyle;rounded=0;orthogonalLoop=1;jettySize=auto;html=1;fontFamily=Helvetica;fontSize=11;fontColor=default;fontStyle=1;labelBackgroundColor=none;resizable=0;" edge="1" parent="1" source="nbQrimUv1-MCqe2rZsde-78" target="nbQrimUv1-MCqe2rZsde-79">
          <mxGeometry relative="1" as="geometry">
            <Array as="points">
              <mxPoint x="1710" y="2270" />
            </Array>
          </mxGeometry>
        </mxCell>
        <mxCell id="nbQrimUv1-MCqe2rZsde-78" value="Get a random time interval" style="rounded=0;whiteSpace=wrap;html=1;fontStyle=1" vertex="1" parent="1">
          <mxGeometry x="1550" y="2240" width="120" height="60" as="geometry" />
        </mxCell>
        <mxCell id="nbQrimUv1-MCqe2rZsde-79" value="Schadule a&lt;br&gt;Health-check ping&lt;br&gt;Response" style="rounded=0;whiteSpace=wrap;html=1;fontStyle=1" vertex="1" parent="1">
          <mxGeometry x="1650" y="2153" width="120" height="60" as="geometry" />
        </mxCell>
      </root>
    </mxGraphModel>
  </diagram>
</mxfile>
